HIERARCHY
ROOT hips
{
  OFFSET 0 11.86390953 0.3628582958
  CHANNELS 6 Xposition Yposition Zposition Yrotation Xrotation Zrotation
  JOINT spine
  {
    OFFSET 0 0.05383551117999996 0
    CHANNELS 3 Yrotation Xrotation Zrotation
    JOINT chest
    {
      OFFSET 0 0.6394558760401424 0
      CHANNELS 3 Yrotation Xrotation Zrotation
      JOINT neck
      {
        OFFSET 0 2.720089088562982 0
        CHANNELS 3 Yrotation Xrotation Zrotation
        JOINT head
        {
          OFFSET 0 0.37880844870545777 0
          CHANNELS 3 Yrotation Xrotation Zrotation
          JOINT rightEye
          {
            OFFSET -0.42867780714 0.7547055649100001 0.7381831347
            CHANNELS 3 Yrotation Xrotation Zrotation
            End Site
            {
              OFFSET -0.42867780714 0.7547055649100001 0.7381831347
            }
          }
          JOINT leftEye
          {
            OFFSET 0.428676479 0.7547055559999993 0.7381844503
            CHANNELS 3 Yrotation Xrotation Zrotation
            End Site
            {
              OFFSET 0.428676479 0.7547055559999993 0.7381844503
            }
          }
          JOINT jaw
          {
            OFFSET -0.18933892286100001 1.5626303011000007 1.137441874206
            CHANNELS 3 Yrotation Xrotation Zrotation
            End Site
            {
              OFFSET -0.18933892286100001 1.5626303011000007 1.137441874206
            }
          }
        }
      }
      JOINT rightShoulder
      {
        OFFSET -0.6795351508 2.0665205 0
        CHANNELS 3 Yrotation Xrotation Zrotation
        JOINT rightUpperArm
        {
          OFFSET -0.7287400483531672 0 0
          CHANNELS 3 Yrotation Xrotation Zrotation
          JOINT rightLowerArm
          {
            OFFSET -1.9872982039174532 0 0
            CHANNELS 3 Yrotation Xrotation Zrotation
            JOINT rightHand
            {
              OFFSET -2.6451847532219275 0 0
              CHANNELS 3 Yrotation Xrotation Zrotation
              JOINT rightLittleProximal
              {
                OFFSET -0.8008804099999995 -0.09592044000000044 -0.26183688629999996
                CHANNELS 3 Yrotation Xrotation Zrotation
                JOINT rightLittleIntermediate
                {
                  OFFSET -0.2473955153999997 -0.02541697026000067 0.002370178700999967
                  CHANNELS 3 Yrotation Xrotation Zrotation
                  JOINT rightLittleDistal
                  {
                    OFFSET -0.163687229200001 -0.015790700860001117 -0.0004274845300000635
                    CHANNELS 3 Yrotation Xrotation Zrotation
                    End Site
                    {
                      OFFSET -0.163687229200001 -0.015790700860001117 -0.0004274845300000635
                    }
                  }
                }
              }
              JOINT rightRingProximal
              {
                OFFSET -0.8393382799999985 -0.06223833561000025 -0.09213143500000005
                CHANNELS 3 Yrotation Xrotation Zrotation
                JOINT rightRingIntermediate
                {
                  OFFSET -0.3284497260000011 -0.03264224524000103 0.009408593183000052
                  CHANNELS 3 Yrotation Xrotation Zrotation
                  JOINT rightRingDistal
                  {
                    OFFSET -0.19447660429999902 -0.021730899850000318 0.003074347969000052
                    CHANNELS 3 Yrotation Xrotation Zrotation
                    End Site
                    {
                      OFFSET -0.19447660429999902 -0.021730899850000318 0.003074347969000052
                    }
                  }
                }
              }
              JOINT rightMiddleProximal
              {
                OFFSET -0.8473005199999989 -0.06735503500000095 0.10541820299999995
                CHANNELS 3 Yrotation Xrotation Zrotation
                JOINT rightMiddleIntermediate
                {
                  OFFSET -0.3450455799999995 -0.02481901642000084 0.019012570390000032
                  CHANNELS 3 Yrotation Xrotation Zrotation
                  JOINT rightMiddleDistal
                  {
                    OFFSET -0.23542332000000088 -0.025003910029999243 0.0075583457949999905
                    CHANNELS 3 Yrotation Xrotation Zrotation
                    End Site
                    {
                      OFFSET -0.23542332000000088 -0.025003910029999243 0.0075583457949999905
                    }
                  }
                }
              }
              JOINT rightIndexProximal
              {
                OFFSET -0.8008568281999987 -0.09897839600000169 0.29462796
                CHANNELS 3 Yrotation Xrotation Zrotation
                JOINT rightIndexIntermediate
                {
                  OFFSET -0.30524754480000016 -0.024634122809999992 0.02743375304999998
                  CHANNELS 3 Yrotation Xrotation Zrotation
                  JOINT rightIndexDistal
                  {
                    OFFSET -0.23067378950000017 -0.016876459159999913 0.008484125099999983
                    CHANNELS 3 Yrotation Xrotation Zrotation
                    End Site
                    {
                      OFFSET -0.23067378950000017 -0.016876459159999913 0.008484125099999983
                    }
                  }
                }
              }
              JOINT rightThumbProximal
              {
                OFFSET -0.25574064999999935 -0.12833189930000155 0.22385698609999993
                CHANNELS 3 Yrotation Xrotation Zrotation
                JOINT rightThumbIntermediate
                {
                  OFFSET -0.22791743260000086 -0.07103586192999978 0.27385039
                  CHANNELS 3 Yrotation Xrotation Zrotation
                  JOINT rightThumbDistal
                  {
                    OFFSET -0.13610267659999975 -0.03369390969999997 0.14246511509999996
                    CHANNELS 3 Yrotation Xrotation Zrotation
                    End Site
                    {
                      OFFSET -0.13610267659999975 -0.03369390969999997 0.14246511509999996
                    }
                  }
                }
              }
            }
          }
        }
      }
      JOINT leftShoulder
      {
        OFFSET 0.6795338396 2.0665205 0
        CHANNELS 3 Yrotation Xrotation Zrotation
        JOINT leftUpperArm
        {
          OFFSET 0.7287383950230443 0 0
          CHANNELS 3 Yrotation Xrotation Zrotation
          JOINT leftLowerArm
          {
            OFFSET 1.9872997282019604 0 0
            CHANNELS 3 Yrotation Xrotation Zrotation
            JOINT leftHand
            {
              OFFSET 2.6451820781302327 0 0
              CHANNELS 3 Yrotation Xrotation Zrotation
              JOINT leftLittleProximal
              {
                OFFSET 0.8008804099999995 -0.09592306899999814 -0.2618342639000001
                CHANNELS 3 Yrotation Xrotation Zrotation
                JOINT leftLittleIntermediate
                {
                  OFFSET 0.2473981400000007 -0.02542352681000093 0.0023609995859999455
                  CHANNELS 3 Yrotation Xrotation Zrotation
                  JOINT leftLittleDistal
                  {
                    OFFSET 0.1636846068000002 -0.015794634789999318 -0.00043272972159996703
                    CHANNELS 3 Yrotation Xrotation Zrotation
                    End Site
                    {
                      OFFSET 0.1636846068000002 -0.015794634789999318 -0.00043272972159996703
                    }
                  }
                }
              }
              JOINT leftRingProximal
              {
                OFFSET 0.8393409199999996 -0.062242267999998324 -0.0921281570000001
                CHANNELS 3 Yrotation Xrotation Zrotation
                JOINT leftRingIntermediate
                {
                  OFFSET 0.3284471036000003 -0.03264224524000103 0.009405970574000042
                  CHANNELS 3 Yrotation Xrotation Zrotation
                  JOINT leftRingDistal
                  {
                    OFFSET 0.1944779099999996 -0.021732211159998904 0.003073036670000001
                    CHANNELS 3 Yrotation Xrotation Zrotation
                    End Site
                    {
                      OFFSET 0.1944779099999996 -0.021732211159998904 0.003073036670000001
                    }
                  }
                }
              }
              JOINT leftMiddleProximal
              {
                OFFSET 0.8473005200000001 -0.06736028199999788 0.1054214809999999
                CHANNELS 3 Yrotation Xrotation Zrotation
                JOINT leftMiddleIntermediate
                {
                  OFFSET 0.3450455799999995 -0.024824261000000014 0.019013225990000007
                  CHANNELS 3 Yrotation Xrotation Zrotation
                  JOINT leftMiddleDistal
                  {
                    OFFSET 0.2354259489999998 -0.025005222000000327 0.0075590014499999705
                    CHANNELS 3 Yrotation Xrotation Zrotation
                    End Site
                    {
                      OFFSET 0.2354259489999998 -0.025005222000000327 0.0075590014499999705
                    }
                  }
                }
              }
              JOINT leftIndexProximal
              {
                OFFSET 0.8008594516999996 -0.09898495199999946 0.29463124239999994
                CHANNELS 3 Yrotation Xrotation Zrotation
                JOINT leftIndexIntermediate
                {
                  OFFSET 0.30524754480000016 -0.024632811499998963 0.02743047472
                  CHANNELS 3 Yrotation Xrotation Zrotation
                  JOINT leftIndexDistal
                  {
                    OFFSET 0.23067378950000017 -0.016876459159999913 0.008481502700000004
                    CHANNELS 3 Yrotation Xrotation Zrotation
                    End Site
                    {
                      OFFSET 0.23067378950000017 -0.016876459159999913 0.008481502700000004
                    }
                  }
                }
              }
              JOINT leftThumbProximal
              {
                OFFSET 0.25574326469999953 -0.12833321050000013 0.22385764169999997
                CHANNELS 3 Yrotation Xrotation Zrotation
                JOINT leftThumbIntermediate
                {
                  OFFSET 0.22804987480000094 -0.07138466829999968 0.273648441
                  CHANNELS 3 Yrotation Xrotation Zrotation
                  JOINT leftThumbDistal
                  {
                    OFFSET 0.13614857189999907 -0.033867001519998885 0.14238119169999996
                    CHANNELS 3 Yrotation Xrotation Zrotation
                    End Site
                    {
                      OFFSET 0.13614857189999907 -0.033867001519998885 0.14238119169999996
                    }
                  }
                }
              }
            }
          }
        }
      }
    }
  }
  JOINT rightUpperLeg
  {
    OFFSET -0.9749898906000001 -1.8495733739999998 0
    CHANNELS 3 Yrotation Xrotation Zrotation
    JOINT rightLowerLeg
    {
      OFFSET 0 -4.1566544686813165 0
      CHANNELS 3 Yrotation Xrotation Zrotation
      JOINT rightFoot
      {
        OFFSET 0.14539718599999998 -4.225553926 -0.3666210900000001
        CHANNELS 3 Yrotation Xrotation Zrotation
        JOINT rightToes
        {
          OFFSET 0.1706738473 -0.9584117400000015 1.0093348617
          CHANNELS 3 Yrotation Xrotation Zrotation
          End Site
          {
            OFFSET 0.1706738473 -0.9584117400000015 1.0093348617
          }
        }
      }
    }
  }
  JOINT leftUpperLeg
  {
    OFFSET 0.9749898906000001 -1.8495733739999998 0
    CHANNELS 3 Yrotation Xrotation Zrotation
    JOINT leftLowerLeg
    {
      OFFSET 0 -4.156653488267941 0
      CHANNELS 3 Yrotation Xrotation Zrotation
      JOINT leftFoot
      {
        OFFSET -0.14537357999999995 -4.225555399999999 -0.36661124279999996
        CHANNELS 3 Yrotation Xrotation Zrotation
        JOINT leftToes
        {
          OFFSET -0.17066467000000002 -0.9584157000000019 1.0093348617
          CHANNELS 3 Yrotation Xrotation Zrotation
          End Site
          {
            OFFSET -0.17066467000000002 -0.9584157000000019 1.0093348617
          }
        }
      }
    }
  }
}
MOTION
Frames: 4
Frame Time: 0.03333333333333333
2.474684000015259 -0.4443223946850594 -0.1311657428741455 -4.774092835683515 0.45238525788412154 -0.1769409270380807 1.0411864293338728 4.62097661760509 -1.7546210505571154 1.3971050281974853 3.573029456864116 2.918432286787254 -2.213460857011506 -6.841374009512785 1.1445236099625626 1.2027537102010277 32.62373043502593 -0.6452907895767136 0 0 0 0 0 0 0 0 0 14.307368268702051 3.9907292140114254 7.908182123301967 61.33648650566429 22.200453710911376 95.74322909103606 49.50069799737593 0.2594971693647058 -0.5628021715370818 26.612295651611774 23.75947089508572 27.153020856168812 -20.001738386412537 7.6124119975730755 50.81867643840873 -4.761176617763494 2.508113872155804 67.64556131981587 -0.17077183973314428 -0.8325783472955129 23.473920617118985 -13.370050701257705 5.33221039148941 41.99590281390307 -4.46431398168855 3.177063049241346 62.470757539368094 0.1284048810567626 -0.17823205946825216 19.16424995961166 -9.5829861603056 1.8519918831044666 31.66408299737266 -4.901557188912925 2.075166526038753 55.521397134038885 -1.635824564770459 0.2212444776420204 17.264322727498595 -1.8927342951508563 0.5582994263388997 24.123568597866484 -4.185989392243993 1.349173805351364 42.70080187463986 -0.17337836320583913 -0.2123415824847479 15.196576701752328 -6.517217790245709 19.462513571513416 -14.880540326306775 -29.449485827027534 0.12263373894313791 3.638359473600886 -15.058267513797439 3.2949666053109277 -0.6654007521828742 -23.971774768172462 2.2134724996340105 -6.738513135699693 -42.67121935625871 32.93674435292101 -99.39951029882977 -56.34976381784223 0.3299188498108925 0.6161404707843224 -7.786107350375869 22.29716170994165 -8.141845218032278 15.842052315651253 5.385655864354283 -35.6255471177001 3.461911079552361 1.304689766422435 -45.6049179966645 2.5732702871339534 0.5107402422999346 -20.53611065957117 11.348355685488631 2.4405359373142166 -26.55375894111649 3.4098166776473042 1.5344397380010109 -40.16007933086974 1.5898197994659504 0.5033875225220946 -19.351061901065208 8.564247340773198 0.8816026074156429 -15.807297453157236 3.5864494818418033 0.7958200533511568 -33.39148819626121 1.3339408605196814 0.15408609177990998 -12.27866241517446 4.564994805741767 0.33321439122589597 -7.876690938444547 2.5750010139690738 0.3426867477287163 -20.5836970174405 0.6785151228347721 0.022942826148709225 -10.17899226265936 0.3621103237626469 18.625568321919797 11.179679652518217 31.852910838064656 0.9234526341047313 -3.123013978861569 8.671559283444042 1.805806521067208 -0.2995535768584925 -3.059576974060666 -14.161193404382166 -7.008630753286303 -11.368511683373782 25.74331208136257 -11.880515220842831 7.03048805453875 -12.563684246201994 3.0811459802417294 0.000008303232472498591 -9.068577841107647 -0.000004313392398590189 13.653552032974652 -19.486882813907044 0.40831862090185933 9.416983192138323 29.714974149343906 3.5438651919914808 2.10405501075961 -10.810167575158474 -1.3843302196663108 1.4567728125348237e-10 -0.0001843533960769555 -5.724613902542958e-11
2.3930323123931885 -0.43015270169189534 -0.11125175654888153 -4.961049657861328 0.3623889881996046 -0.4254531610058477 1.1157422131994152 4.572722778387376 -1.545308290347356 1.4565419403117321 3.541337150819913 2.9970068823435536 -2.1647564764101297 -6.9369727074246175 1.0262837742810824 1.3694020378926757 32.44755500388785 -1.2278869531640901 0 0 0 0 0 0 0 0 0 14.36913877756675 3.980030745680645 7.912912750234206 61.64964709094652 22.14325065150662 95.90248391026942 49.2264525983311 0.25680724814735656 -0.5604951879240209 26.704854782229418 23.822239805630165 26.954455059147048 -20.001746040202367 7.612410274843138 50.81868831019127 -4.761178321050274 2.5081262637444484 67.64555081587787 -0.17076627630150143 -0.8325667667678209 23.473925110399954 -13.370048239633553 5.332200101677735 41.99590536300722 -4.464328474078979 3.177066255820938 62.47073150076794 0.12839512933837718 -0.17823251303769627 19.16423481400329 -9.582983633406585 1.851980778246431 31.66408299737266 -4.90155123044568 2.0751697297910074 55.52138481382667 -1.6358104831416456 0.22124807952644432 17.264313560821968 -1.8927542483009587 0.558297398530222 24.123570156361026 -4.185982152520317 1.3491808509372047 42.700799364173434 -0.17337117281446263 -0.2123380072830522 15.196585836209278 -6.517239793278584 19.462509949453214 -14.880528019232544 -29.449499593562535 0.1226373541492024 3.6383496749709403 -15.05826497343849 3.2949593362182035 -0.6653962093063872 -23.95449154541147 2.228405759579315 -6.6775462661003075 -42.84198148893247 32.67948953373008 -99.70328654818874 -55.84845933885043 0.32456360066971895 0.6125413907685247 -8.057965310093033 22.238292111280202 -7.789996263300948 15.842053965626112 5.385664868727497 -35.62555190400141 3.461918964591104 1.3046834682089834 -45.6049179966645 2.573247317479221 0.5107374674253383 -20.536095470674713 11.348354847647183 2.440547046448163 -26.553760469930392 3.409804954838644 1.5344243645626687 -40.160069702513205 1.5898396308957568 0.503390457482278 -19.35104674861138 8.564260514707634 0.8816041016964105 -15.807288306925729 3.586437977361028 0.7958248562912117 -33.391468298963176 1.3339397935880106 0.15407872795558336 -12.278677323643363 4.564979911848684 0.3332261574929455 -7.87668332684883 2.5750084770785673 0.34267428774671277 -20.583700214571255 0.6785229129737413 0.022950321681614844 -10.179002346687778 0.3621026040629353 18.62557552960454 11.179692725349607 31.852903233191704 0.9234713128292978 -3.1230080105466733 8.671546101793044 1.8057996874843023 -0.2995565665101201 -4.019627845155251 -13.568677255437894 -6.59912414761838 -11.11197251664819 25.11839230686647 -11.014109054115117 7.295408577534899 -12.890452502466731 2.9893506243742456 0.000009611113276466383 -9.04310906500792 -0.000002873310696561605 13.548056831414677 -19.224068700043997 1.1326923022703934 9.367009430277028 29.35660073155149 3.6592335496834028 2.2102549877432294 -10.596037342566879 -1.9820078433136163 0.000005941744322622939 -0.0002610793327940961 -0.0000017845224153485934
2.217449903488159 -0.4027755730908211 -0.07846207171678543 -5.406143180561918 0.15022075136853838 -0.9771476794928747 1.131388186621264 4.514385079043742 -1.1508003706106504 1.478630059262871 3.503743840733153 3.1610051938775334 -2.0085896834554062 -7.149223439797461 0.7878036073670904 1.9518378058506602 32.01778112158625 -2.4626415019166887 0 0 0 0 0 0 0 0 0 14.517319930408641 3.9483324106585473 7.9779626903282965 62.230003368502395 22.232859384089096 96.12812951261871 48.93139757068915 0.25391156602518583 -0.5579829538609086 26.768481860894305 23.845611415627268 26.74226394705025 -20.001740005231223 7.612413720303021 50.818668920148 -4.76119308272208 2.5081187860616314 67.64556001969015 -0.17077474819381003 -0.8325833103788199 23.473917484321813 -13.370048239633553 5.332210820231566 41.99589312590719 -4.464355593860783 3.1770583462579625 62.47076518642387 0.1284054680274996 -0.17822669667659044 19.164233201077966 -9.58298137997924 1.8519803511365083 31.664085905616552 -4.901565993000161 2.0751842534679747 55.52138481382667 -1.6358268050295701 0.2212502539974118 17.26433352480266 -1.8927476348511736 0.5583116465543667 24.123563922382612 -4.185988966377898 1.3491806374346031 42.700833154036665 -0.17336188800481067 -0.21234130233834633 15.196560975897974 -6.517243019540089 19.46249546121321 -14.880526158911074 -29.449502567397364 0.12264056914795389 3.6383547872996345 -15.058274120373861 3.2949657501235454 -0.6654041192560296 -23.912960559968795 2.263490151616149 -6.533680834788736 -43.12127497466834 32.10423005071866 -100.29935854541931 -54.894722959458726 0.31441508911551586 0.6055597369730413 -8.556230395725873 22.003599612302402 -7.183978439485274 15.842055615600941 5.385655006794936 -35.625569051143444 3.4619098008974176 1.3046785577374898 -45.60490350469552 2.5732409203796327 0.5107375207883114 -20.53610626331972 11.348369763562768 2.440544055527476 -26.55376352680518 3.409805807406556 1.5344392042010666 -40.16006709160562 1.5898267220417612 0.5033872557075326 -19.35105432483817 8.564254604232527 0.8816070902579471 -15.807308242557026 3.586459921697393 0.7958245894612085 -33.39149480730326 1.333940113667512 0.1540898403933816 -12.27865334643114 4.565004013889565 0.3332036388322099 -7.876709166852379 2.5749914185424534 0.3426822920178053 -20.583693820309612 0.678517950761935 0.02294419018562061 -10.179002346687778 0.36211891087173453 18.62556651999866 11.179670999007017 31.85292785032838 0.9234628807193386 -3.1230107815500263 8.671546101793044 1.805800541682164 -0.2995696195426536 -5.05695650706797 -12.789482466793528 -5.64990290974883 -10.644122052013355 24.486403179540613 -9.560686854910472 8.111112348880887 -12.75438719895526 3.1990307570038405 0.000005870440609910471 -9.05057340213232 9.042201890114251e-7 13.368326418529264 -18.687598172861644 2.666214273647158 9.318367441701234 28.568843421468333 3.9949789270934897 2.410854198114343 -10.074726276611914 -3.280866198680868 0.000004275059168223212 -0.000011596700930284304 -0.000006032142098668369
2.0291669368743896 -0.38118629391601644 -0.0546201728284359 -5.806606414053082 -0.06317196552500248 -1.5598166226754755 0.934562263408274 4.4829453335379394 -0.7852436195263639 1.3329224062484621 3.485962525806744 3.3433110021417343 -1.766686730845908 -7.390710358391695 0.5379008196716842 2.7783482841000198 31.488852744588357 -3.7034211455923804 0 0 0 0 0 0 0 0 0 14.624713515007228 3.9305292928329476 7.973784707069395 62.59574661451979 22.488188042844776 96.22793080496953 49.04259611400435 0.2550038734559705 -0.5589429058780169 26.673227783572116 23.74042190607505 27.110900817898166 -20.00173191113745 7.6124119975730755 50.818683462680575 -4.7611973409390655 2.5081185724135513 67.64556894289035 -0.17076632966775224 -0.8325727971808544 23.473926676798477 -13.370051535501538 5.332212535200197 41.99589796990511 -4.464326342845129 3.177050009151108 62.470772833479664 0.12840390721894876 -0.17823814263491514 19.164231588152614 -9.582979695379954 1.8519867577853648 31.66407068533969 -4.901565567395347 2.075179341047809 55.52140470266441 -1.6358166705240273 0.22124934685614925 17.264306024772957 -1.8927459281544465 0.5583044958605969 24.123568597866484 -4.185994751989042 1.3491987851558003 42.70080901841991 -0.17337209329128106 -0.21234208941633168 15.196568462505295 -6.517226375768949 19.46250270533305 -14.880521783175604 -29.449499593562535 0.12265076109420599 3.6383454146969836 -15.05825836686191 3.294972805419469 -0.6654031435154204 -23.91713220316404 2.2822900967974564 -6.437315812251563 -43.28625034841453 31.609913389640067 -100.81018841368449 -54.22370323118719 0.3073825587769087 0.6005257086472924 -8.88242275466848 21.4433853573101 -6.782709454282699 15.842068101832965 5.385659723371359 -35.625573837445145 3.461917472827028 1.304700121112381 -45.60491316600818 2.573239214486398 0.5107383745958793 -20.536107862418113 11.348373114928387 2.4405312372960357 -26.55377269893558 3.4098139068016464 1.534448065280159 -40.160057463249025 1.5898017697449383 0.5033695392206364 -19.351059158268303 8.564249029480353 0.8815994053854289 -15.807293236429864 3.5864556607784626 0.7958353160273505 -33.39149007596278 1.333929871123426 0.1540763533890438 -12.278664083667387 4.564993103582588 0.3332153250566136 -7.876705783921077 2.575020358256131 0.34267487472659264 -20.583700214571255 0.6785017301985404 0.022946804867621927 -10.178993943330807 0.3621038482377504 18.625570123840955 11.17968477057424 31.85290613436953 0.9234751553097923 -3.1230318567309605 8.67154947952671 1.8058060939682756 -0.2995446879835543 -5.145871394683247 -12.128570316513644 -4.297948092946142 -10.677543734352712 24.249565865012116 -8.852309945333513 8.602484595333875 -12.902571006539207 2.3755776843974377 0.000011714128757756025 -9.10032145700522 2.789576509095574e-7 13.243710701292846 -18.240503918880755 4.233146621850372 9.222082691984346 27.810426667382348 4.4136741332407405 2.5710311935941483 -9.487250720843647 -4.658630625101856 0.0000011185410325983326 0.000003562941422596774 -8.68293056483537e-7
